# 3ds Max Wavefront OBJ Exporter v0.99 - (c)2007 guruware
# File Created: 18.10.2022 20:40:51

mtllib pyramid.mtl

#
# object Pyramid001
#

v  0.0000 50.0000 -0.0000
v  -25.0000 0.0000 25.0000
v  25.0000 0.0000 25.0000
v  25.0000 0.0000 -25.0000
v  -25.0000 0.0000 -25.0000
# 5 vertices

vn 0.0000 1.0000 -0.0000
vn -0.6626 -0.3491 0.6626
vn 0.6626 -0.3491 0.6626
vn 0.6626 -0.3491 -0.6626
vn -0.6626 -0.3491 -0.6626
# 5 vertex normals

vt 0.5000 1.0000 0.0000
vt 0.0000 0.0000 0.0000
vt 1.0000 0.0000 0.0000
vt 0.0000 1.0000 0.0000
vt 0.5000 0.5000 0.0000
vt 1.0000 1.0000 0.0000
# 6 texture coords

o Pyramid001
g Pyramid001
usemtl wire_177027088
s 4
f 1/1/1 2/2/2 3/3/3 
s 2
f 1/1/1 3/2/3 4/3/4 
s 16
f 1/1/1 4/2/4 5/3/5 
s 32
f 1/1/1 5/2/5 2/3/2 
s 8
f 2/4/2 4/5/4 3/6/3 
f 5/2/5 4/5/4 2/4/2 
# 0 polygons - 6 triangles

